<svg width="64" height="64" viewBox="0 0 64 64" fill="none" xmlns="http://www.w3.org/2000/svg">
<path d="M56 5.26001H27.07C25.7439 5.26001 24.4721 5.78679 23.5345 6.72448C22.5968 7.66216 22.07 8.93393 22.07 10.26V16.63H8C6.67392 16.63 5.40215 17.1568 4.46447 18.0945C3.52678 19.0322 3 20.3039 3 21.63V39.35C3 40.6761 3.52678 41.9479 4.46447 42.8855C5.40215 43.8232 6.67392 44.35 8 44.35H9.06V57.74C9.05885 57.9386 9.11687 58.1331 9.22667 58.2986C9.33647 58.4641 9.49307 58.5932 9.67652 58.6694C9.85996 58.7455 10.0619 58.7654 10.2567 58.7263C10.4514 58.6872 10.6301 58.591 10.77 58.45L24.87 44.35H42.43C43.7561 44.35 45.0279 43.8232 45.9655 42.8855C46.9032 41.9479 47.43 40.6761 47.43 39.35V35.29L54 41.88C54.1393 42.0204 54.3171 42.1164 54.5109 42.1558C54.7047 42.1952 54.9058 42.1762 55.0889 42.1013C55.2719 42.0264 55.4286 41.8988 55.5392 41.7348C55.6497 41.5709 55.7092 41.3778 55.71 41.18V29.65H56C57.3261 29.65 58.5979 29.1232 59.5355 28.1855C60.4732 27.2479 61 25.9761 61 24.65V10.26C61 8.93393 60.4732 7.66216 59.5355 6.72448C58.5979 5.78679 57.3261 5.26001 56 5.26001ZM45.43 39.35C45.43 40.1457 45.1139 40.9087 44.5513 41.4713C43.9887 42.0339 43.2257 42.35 42.43 42.35H24.43C24.2984 42.3492 24.1679 42.3745 24.0461 42.4242C23.9243 42.474 23.8134 42.5473 23.72 42.64L11.06 55.33V43.33C11.06 43.0648 10.9546 42.8104 10.7671 42.6229C10.5796 42.4354 10.3252 42.33 10.06 42.33H8C7.20435 42.33 6.44129 42.0139 5.87868 41.4513C5.31607 40.8887 5 40.1257 5 39.33V21.63C5 20.8344 5.31607 20.0713 5.87868 19.5087C6.44129 18.9461 7.20435 18.63 8 18.63H42.43C43.2257 18.63 43.9887 18.9461 44.5513 19.5087C45.1139 20.0713 45.43 20.8344 45.43 21.63V39.35ZM59 24.65C59 25.4457 58.6839 26.2087 58.1213 26.7713C57.5587 27.3339 56.7957 27.65 56 27.65H54.72C54.4548 27.65 54.2004 27.7554 54.0129 27.9429C53.8254 28.1304 53.72 28.3848 53.72 28.65V38.76L47.43 32.46V21.63C47.43 20.3039 46.9032 19.0322 45.9655 18.0945C45.0279 17.1568 43.7561 16.63 42.43 16.63H24.07V10.26C24.07 9.46436 24.3861 8.7013 24.9487 8.13869C25.5113 7.57608 26.2744 7.26001 27.07 7.26001H56C56.7957 7.26001 57.5587 7.57608 58.1213 8.13869C58.6839 8.7013 59 9.46436 59 10.26V24.65Z" fill="white"/>
<path d="M32.83 27.27C32.7036 26.6577 32.37 26.1076 31.8856 25.7124C31.4011 25.3171 30.7952 25.1009 30.17 25.1H30.08V24.63C30.0232 23.3779 29.4859 22.1959 28.5797 21.3299C27.6736 20.4639 26.4684 19.9806 25.215 19.9806C23.9616 19.9806 22.7564 20.4639 21.8503 21.3299C20.9441 22.1959 20.4068 23.3779 20.35 24.63V25.1H20.26C19.6343 25.099 19.0275 25.3146 18.5426 25.7101C18.0577 26.1057 17.7247 26.6568 17.6 27.27L15.75 36.56C15.6667 36.953 15.6738 37.3597 15.7709 37.7495C15.8679 38.1393 16.0522 38.5019 16.31 38.81C16.5623 39.1213 16.8808 39.3726 17.2423 39.5456C17.6038 39.7185 17.9993 39.8089 18.4 39.81H32C32.4006 39.8074 32.7957 39.7163 33.1571 39.5432C33.5184 39.3702 33.837 39.1194 34.0902 38.8089C34.3434 38.4984 34.5248 38.1358 34.6216 37.7471C34.7184 37.3583 34.7281 36.953 34.65 36.56L32.83 27.27ZM22.35 24.63C22.3932 23.8994 22.7138 23.2129 23.2464 22.7109C23.7789 22.2089 24.4831 21.9293 25.215 21.9293C25.9469 21.9293 26.6511 22.2089 27.1836 22.7109C27.7162 23.2129 28.0368 23.8994 28.08 24.63V25.1H22.35V24.63ZM32.58 37.55C32.5124 37.6303 32.4283 37.6952 32.3334 37.74C32.2385 37.7849 32.135 37.8088 32.03 37.81H18.4C18.295 37.8088 18.1915 37.7849 18.0966 37.74C18.0017 37.6952 17.9176 37.6303 17.85 37.55C17.7839 37.4684 17.737 37.3731 17.7128 37.2709C17.6886 37.1688 17.6876 37.0625 17.71 36.96L19.56 27.67C19.5925 27.5086 19.6801 27.3634 19.8078 27.2594C19.9355 27.1554 20.0953 27.0991 20.26 27.1H20.35V28.26C20.35 28.5252 20.4554 28.7796 20.6429 28.9671C20.8304 29.1546 21.0848 29.26 21.35 29.26C21.6152 29.26 21.8696 29.1546 22.0571 28.9671C22.2446 28.7796 22.35 28.5252 22.35 28.26V27.1H28.08V28.26C28.08 28.5252 28.1854 28.7796 28.3729 28.9671C28.5604 29.1546 28.8148 29.26 29.08 29.26C29.3452 29.26 29.5996 29.1546 29.7871 28.9671C29.9746 28.7796 30.08 28.5252 30.08 28.26V27.1H30.17C30.334 27.0975 30.4935 27.1535 30.6199 27.258C30.7464 27.3624 30.8315 27.5085 30.86 27.67L32.72 37C32.7364 37.0964 32.7324 37.1951 32.7082 37.2898C32.6841 37.3846 32.6404 37.4732 32.58 37.55Z" fill="white"/>
</svg>
