<svg width="64" height="64" viewBox="0 0 64 64" fill="none" xmlns="http://www.w3.org/2000/svg">
<path d="M50.92 41.5L60.92 18.07C60.9719 17.9492 60.9994 17.8193 61.0011 17.6878C61.0028 17.5564 60.9786 17.4259 60.9298 17.3038C60.8811 17.1816 60.8088 17.0703 60.717 16.9762C60.6252 16.882 60.5158 16.8069 60.395 16.755C60.2742 16.7031 60.1443 16.6755 60.0129 16.6739C59.8814 16.6722 59.7509 16.6964 59.6288 16.7451C59.5067 16.7939 59.3953 16.8662 59.3012 16.958C59.207 17.0498 59.1319 17.1592 59.08 17.28L49.34 40.1H18.91L13 13.46C12.9492 13.2344 12.8218 13.0334 12.6395 12.8912C12.4571 12.749 12.2312 12.6743 12 12.68H4C3.73478 12.68 3.48043 12.7853 3.29289 12.9729C3.10536 13.1604 3 13.4148 3 13.68C3 13.9452 3.10536 14.1996 3.29289 14.3871C3.48043 14.5746 3.73478 14.68 4 14.68H11.2L18.88 49.18C18.9308 49.4056 19.0582 49.6066 19.2405 49.7488C19.4229 49.891 19.6488 49.9656 19.88 49.96H50C50.2652 49.96 50.5196 49.8546 50.7071 49.6671C50.8946 49.4796 51 49.2252 51 48.96C51 48.6948 50.8946 48.4404 50.7071 48.2529C50.5196 48.0653 50.2652 47.96 50 47.96H20.66L19.35 42.1H50C50.1952 42.1007 50.3863 42.0442 50.5498 41.9376C50.7132 41.831 50.8419 41.6789 50.92 41.5Z" fill="white"/>
<path d="M25.21 51.93C24.3117 51.93 23.4335 52.1965 22.6867 52.6958C21.9399 53.1951 21.358 53.9048 21.0146 54.7349C20.6713 55.5651 20.582 56.4785 20.758 57.3594C20.934 58.2403 21.3674 59.0493 22.0033 59.6838C22.6392 60.3183 23.4491 60.7499 24.3304 60.924C25.2118 61.098 26.1249 61.0067 26.9543 60.6615C27.7837 60.3164 28.4921 59.7329 28.9897 58.985C29.4874 58.2371 29.752 57.3584 29.75 56.46C29.75 55.8643 29.6325 55.2744 29.4042 54.7241C29.1759 54.1739 28.8414 53.674 28.4197 53.2533C27.998 52.8325 27.4974 52.499 26.9466 52.272C26.3959 52.0449 25.8057 51.9287 25.21 51.93ZM25.21 59C24.7076 59 24.2166 58.851 23.7989 58.5719C23.3812 58.2928 23.0556 57.8961 22.8634 57.432C22.6711 56.9679 22.6208 56.4572 22.7188 55.9645C22.8168 55.4718 23.0587 55.0192 23.414 54.664C23.7692 54.3087 24.2218 54.0668 24.7145 53.9688C25.2072 53.8708 25.7179 53.9211 26.182 54.1133C26.6461 54.3056 27.0428 54.6312 27.3219 55.0489C27.601 55.4666 27.75 55.9576 27.75 56.46C27.75 57.1337 27.4824 57.7797 27.0061 58.2561C26.5297 58.7324 25.8837 59 25.21 59Z" fill="white"/>
<path d="M43.5 51.93C42.6 51.9221 41.7179 52.1818 40.9659 52.6763C40.2138 53.1707 39.6257 53.8776 39.2762 54.707C38.9267 55.5364 38.8317 56.451 39.0031 57.3346C39.1746 58.2182 39.6048 59.0309 40.2391 59.6694C40.8734 60.3079 41.6832 60.7435 42.5656 60.9208C43.448 61.0982 44.3632 61.0092 45.195 60.6652C46.0267 60.3213 46.7374 59.7379 47.2369 58.9891C47.7363 58.2403 48.002 57.36 48 56.46C48 55.2637 47.5269 54.116 46.6838 53.2673C45.8408 52.4187 44.6962 51.9379 43.5 51.93ZM43.5 59C42.996 59.0079 42.5011 58.8657 42.0781 58.5915C41.6552 58.3173 41.3234 57.9234 41.125 57.46C40.9266 56.9967 40.8706 56.4847 40.964 55.9894C41.0575 55.4941 41.2962 55.0378 41.6498 54.6786C42.0033 54.3193 42.4558 54.0734 42.9496 53.9721C43.4434 53.8708 43.9561 53.9187 44.4226 54.1097C44.889 54.3008 45.2881 54.6262 45.569 55.0448C45.8499 55.4633 45.9999 55.9559 46 56.46C46.0001 57.1268 45.738 57.7668 45.2703 58.242C44.8025 58.7172 44.1667 58.9895 43.5 59Z" fill="white"/>
<path d="M21.11 18.22V32.46C21.11 33.2751 21.4331 34.057 22.0086 34.6344C22.584 35.2117 23.3649 35.5374 24.18 35.54H45.69C46.5051 35.5374 47.286 35.2117 47.8614 34.6344C48.4369 34.057 48.76 33.2751 48.76 32.46V18.22C49.402 18.0397 49.9679 17.6553 50.372 17.1249C50.7761 16.5944 50.9966 15.9468 51 15.28V13.91C51 13.0949 50.6769 12.313 50.1014 11.7356C49.526 11.1583 48.7451 10.8326 47.93 10.83H43.08C43.5289 10.1394 43.7686 9.3337 43.77 8.51V7.32C43.7674 6.17508 43.3114 5.0778 42.5018 4.26822C41.6922 3.45863 40.5949 3.00264 39.45 3H38.26C37.622 3.00267 36.9924 3.14664 36.4167 3.42155C35.8409 3.69647 35.3332 4.09551 34.93 4.59C34.5297 4.09467 34.024 3.69491 33.4497 3.41984C32.8753 3.14477 32.2468 3.00134 31.61 3H30.42C29.2751 3.00264 28.1778 3.45863 27.3682 4.26822C26.5586 5.0778 26.1026 6.17508 26.1 7.32V8.51C26.1014 9.3337 26.341 10.1394 26.79 10.83H21.94C21.1249 10.8326 20.344 11.1583 19.7686 11.7356C19.1931 12.313 18.87 13.0949 18.87 13.91V15.28C18.8734 15.9468 19.0938 16.5944 19.498 17.1249C19.9021 17.6553 20.468 18.0397 21.11 18.22ZM23.11 32.46V18.35H30.34V33.54H24.18C24.0386 33.54 23.8987 33.512 23.7682 33.4576C23.6377 33.4032 23.5193 33.3235 23.4198 33.2231C23.3203 33.1227 23.2417 33.0035 23.1886 32.8725C23.1354 32.7416 23.1087 32.6014 23.11 32.46ZM32.34 33.54V18.35H37.53V33.54H32.34ZM32.34 12.83H37.53V16.35H32.34V12.83ZM46.76 32.46C46.7613 32.6014 46.7346 32.7416 46.6814 32.8725C46.6283 33.0035 46.5496 33.1227 46.4502 33.2231C46.3507 33.3235 46.2323 33.4032 46.1018 33.4576C45.9713 33.512 45.8314 33.54 45.69 33.54H39.53V18.35H46.76V32.46ZM49 13.91V15.28C49 15.5638 48.8873 15.8359 48.6866 16.0366C48.4859 16.2373 48.2138 16.35 47.93 16.35H39.53V12.83H47.93C48.0714 12.83 48.2113 12.858 48.3418 12.9124C48.4723 12.9668 48.5907 13.0465 48.6902 13.1469C48.7896 13.2473 48.8683 13.3665 48.9214 13.4975C48.9746 13.6284 49.0013 13.7686 49 13.91ZM38.26 5H39.45C40.0653 5 40.6554 5.24443 41.0905 5.67951C41.5256 6.1146 41.77 6.7047 41.77 7.32V8.51C41.77 9.1253 41.5256 9.7154 41.0905 10.1505C40.6554 10.5856 40.0653 10.83 39.45 10.83H35.94V7.32C35.94 6.7047 36.1844 6.1146 36.6195 5.67951C37.0546 5.24443 37.6447 5 38.26 5ZM28.1 8.51V7.32C28.1 7.01533 28.16 6.71365 28.2766 6.43217C28.3932 6.1507 28.5641 5.89494 28.7795 5.67951C28.9949 5.46408 29.2507 5.29319 29.5322 5.1766C29.8136 5.06001 30.1153 5 30.42 5H31.61C32.2262 4.99999 32.8174 5.2441 33.254 5.6789C33.6907 6.1137 33.9373 6.70378 33.94 7.32V10.83H30.42C30.1153 10.83 29.8136 10.77 29.5322 10.6534C29.2507 10.5368 28.9949 10.3659 28.7795 10.1505C28.5641 9.93506 28.3932 9.6793 28.2766 9.39783C28.16 9.11635 28.1 8.81467 28.1 8.51ZM20.87 13.91C20.8687 13.7686 20.8954 13.6284 20.9486 13.4975C21.0017 13.3665 21.0803 13.2473 21.1798 13.1469C21.2793 13.0465 21.3977 12.9668 21.5282 12.9124C21.6587 12.858 21.7986 12.83 21.94 12.83H30.34V16.35H21.94C21.6562 16.35 21.3841 16.2373 21.1834 16.0366C20.9827 15.8359 20.87 15.5638 20.87 15.28V13.91Z" fill="white"/>
</svg>
